<?xml version="1.0" encoding="UTF-8" standalone="no"?>
<!DOCTYPE svg PUBLIC "-//W3C//DTD SVG 1.1//EN" "http://www.w3.org/Graphics/SVG/1.1/DTD/svg11.dtd">
<svg xmlns="http://www.w3.org/2000/svg" version="1.1" viewBox="0.00 0.00 1839.00 1139.00">
<path fill="#0090d3" d="
  M 133.54 50.08
  L 98.38 50.08
  A 0.85 0.84 -8.3 0 1 97.57 49.48
  C 97.27 48.51 97.15 47.04 96.92 46.34
  Q 93.68 36.56 84.85 33.83
  C 74.46 30.61 51.09 30.75 51.08 47.37
  C 51.07 57.05 61.23 60.94 68.96 63.06
  Q 69.07 63.09 93.63 68.87
  Q 101.88 70.81 111.37 75.64
  C 123.23 81.69 132.13 91.21 135.16 104.33
  C 137.11 112.77 136.73 122.52 134.08 130.33
  C 125.91 154.38 101.13 161.98 77.85 162.95
  C 58.46 163.75 36.88 160.12 22.72 147.06
  C 12.07 137.24 7.89 124.10 7.38 108.99
  A 0.66 0.66 0.0 0 1 8.04 108.31
  L 43.33 108.31
  A 0.67 0.67 0.0 0 1 43.99 108.86
  Q 44.12 109.49 44.68 112.59
  C 47.95 130.66 69.39 133.65 83.89 130.12
  Q 87.84 129.16 91.83 126.13
  Q 97.58 121.76 97.49 114.73
  C 97.37 104.24 84.30 100.42 76.11 98.37
  Q 71.09 97.12 51.53 92.50
  C 41.08 90.02 29.67 84.50 21.86 76.90
  C 12.65 67.95 10.30 54.85 12.04 42.22
  C 15.61 16.42 41.06 3.04 64.49 0.90
  C 84.37 -0.92 107.68 2.91 121.88 18.22
  Q 133.83 31.11 134.21 49.40
  A 0.67 0.66 -0.8 0 1 133.54 50.08
  Z"
/>
<path fill="#0090d3" d="
  M 826.08 160.53
  L 826.08 3.15
  A 0.45 0.45 0.0 0 1 826.53 2.70
  Q 892.63 2.65 892.75 2.65
  C 928.54 3.21 952.64 27.88 948.90 64.23
  C 945.74 94.93 921.88 111.40 892.49 111.79
  Q 882.80 111.91 864.84 111.82
  A 0.56 0.55 -89.5 0 0 864.28 112.38
  L 864.28 160.35
  A 0.67 0.67 0.0 0 1 863.61 161.02
  L 826.57 161.02
  A 0.49 0.49 0.0 0 1 826.08 160.53
  Z
  M 864.29 34.02
  L 864.21 81.06
  A 0.50 0.50 0.0 0 0 864.71 81.56
  L 886.03 81.60
  A 23.46 22.48 0.1 0 0 909.53 59.16
  L 909.53 56.08
  A 23.46 22.48 0.1 0 0 886.11 33.56
  L 864.79 33.52
  A 0.50 0.50 0.0 0 0 864.29 34.02
  Z"
/>
<path fill="#0090d3" d="
  M 200.09 160.52
  A 0.52 0.52 0.0 0 1 199.57 161.04
  L 164.31 161.04
  A 0.52 0.52 0.0 0 1 163.79 160.52
  L 163.79 11.88
  A 0.52 0.52 0.0 0 1 164.31 11.36
  L 199.57 11.36
  A 0.52 0.52 0.0 0 1 200.09 11.88
  L 200.09 160.52
  Z"
/>
<path fill="#0090d3" d="
  M 263.57 131.66
  L 324.81 131.66
  A 0.50 0.50 0.0 0 1 325.31 132.16
  L 325.31 160.53
  A 0.50 0.50 0.0 0 1 324.81 161.03
  L 227.30 161.03
  A 0.50 0.50 0.0 0 1 226.80 160.53
  L 226.80 11.85
  A 0.50 0.50 0.0 0 1 227.30 11.35
  L 262.57 11.35
  A 0.50 0.50 0.0 0 1 263.07 11.85
  L 263.07 131.16
  A 0.50 0.50 0.0 0 0 263.57 131.66
  Z"
/>
<path fill="#0090d3" d="
  M 447.15 86.15
  Q 447.15 97.92 447.13 100.44
  A 0.48 0.48 0.0 0 1 446.65 100.91
  L 384.97 100.91
  A 0.69 0.68 -0.0 0 0 384.28 101.59
  L 384.28 131.13
  A 0.50 0.50 0.0 0 0 384.78 131.63
  L 452.06 131.63
  A 0.49 0.48 0.0 0 1 452.55 132.11
  L 452.55 160.57
  A 0.43 0.43 0.0 0 1 452.12 161.00
  L 348.71 161.00
  A 0.58 0.58 0.0 0 1 348.13 160.42
  Q 348.13 159.06 348.12 86.17
  Q 348.11 13.27 348.11 11.91
  A 0.58 0.58 0.0 0 1 348.69 11.33
  L 452.10 11.31
  A 0.43 0.43 0.0 0 1 452.53 11.74
  L 452.54 40.20
  A 0.49 0.48 -0.0 0 1 452.05 40.68
  L 384.77 40.69
  A 0.50 0.50 0.0 0 0 384.27 41.20
  L 384.28 70.74
  A 0.69 0.68 -0.0 0 0 384.97 71.41
  L 446.65 71.40
  A 0.48 0.48 0.0 0 1 447.12 71.87
  Q 447.15 74.39 447.15 86.15
  Z"
/>
<path fill="#0090d3" d="
  M 530.56 95.06
  Q 523.97 85.27 516.52 74.74
  A 0.53 0.53 0.0 0 0 515.71 74.68
  Q 515.48 74.92 515.48 75.25
  Q 515.43 78.97 515.45 160.43
  A 0.52 0.52 0.0 0 1 514.93 160.95
  L 479.87 160.95
  A 0.56 0.56 0.0 0 1 479.31 160.39
  L 479.32 11.82
  A 0.53 0.53 0.0 0 1 479.85 11.29
  L 509.69 11.29
  A 1.11 1.10 -17.2 0 1 510.60 11.77
  C 525.71 33.72 540.88 55.48 555.48 77.20
  Q 562.07 86.99 569.52 97.52
  A 0.53 0.53 0.0 0 0 570.33 97.57
  Q 570.56 97.33 570.56 97.01
  Q 570.61 93.29 570.59 11.83
  A 0.52 0.52 0.0 0 1 571.11 11.31
  L 606.17 11.31
  A 0.56 0.56 0.0 0 1 606.73 11.87
  L 606.71 160.44
  A 0.53 0.53 0.0 0 1 606.19 160.97
  L 576.35 160.97
  A 1.11 1.10 -17.2 0 1 575.44 160.49
  C 560.33 138.54 545.16 116.77 530.56 95.06
  Z"
/>
<path fill="#0090d3" d="
  M 691.99 11.32
  Q 750.67 11.31 754.88 11.38
  A 0.42 0.41 0.6 0 1 755.29 11.79
  L 755.29 40.18
  A 0.52 0.52 0.0 0 1 754.77 40.70
  L 710.41 40.70
  A 0.56 0.56 0.0 0 0 709.85 41.26
  L 709.85 160.55
  A 0.42 0.41 89.3 0 1 709.45 160.97
  Q 707.27 161.03 692.01 161.03
  Q 676.75 161.03 674.57 160.97
  A 0.42 0.41 -89.4 0 1 674.17 160.55
  L 674.14 41.26
  A 0.56 0.56 0.0 0 0 673.58 40.70
  L 629.22 40.72
  A 0.52 0.52 0.0 0 1 628.70 40.20
  L 628.69 11.81
  A 0.42 0.41 -0.6 0 1 629.10 11.40
  Q 633.31 11.33 691.99 11.32
  Z"
/>
<path fill="#0090d3" d="
  M 1039.87 11.33
  Q 1053.83 11.33 1063.62 11.34
  A 0.50 0.49 79.6 0 1 1064.09 11.68
  L 1114.33 160.57
  A 0.35 0.34 -9.5 0 1 1114.00 161.02
  L 1075.93 161.02
  A 0.50 0.49 81.1 0 1 1075.46 160.67
  L 1065.83 129.92
  A 0.45 0.44 -7.0 0 0 1065.42 129.61
  Q 1064.78 129.58 1039.87 129.58
  Q 1014.95 129.58 1014.31 129.61
  A 0.45 0.44 7.0 0 0 1013.90 129.92
  L 1004.27 160.67
  A 0.50 0.49 -81.1 0 1 1003.80 161.02
  L 965.73 161.02
  A 0.35 0.34 9.5 0 1 965.40 160.57
  L 1015.64 11.68
  A 0.50 0.49 -79.6 0 1 1016.11 11.34
  Q 1025.90 11.33 1039.87 11.33
  Z
  M 1022.90 101.21
  A 0.70 0.70 0.0 0 0 1023.56 102.12
  L 1056.12 102.12
  A 0.70 0.70 0.0 0 0 1056.78 101.21
  L 1040.51 49.34
  A 0.70 0.70 0.0 0 0 1039.17 49.34
  L 1022.90 101.21
  Z"
/>
<path fill="#0090d3" d="
  M 1255.90 160.31
  A 0.49 0.49 0.0 0 1 1255.47 161.04
  L 1217.52 161.04
  A 0.77 0.76 75.4 0 1 1216.85 160.64
  L 1189.35 110.16
  A 0.69 0.67 -13.8 0 0 1188.75 109.81
  L 1171.45 109.81
  A 0.59 0.58 -0.0 0 0 1170.86 110.39
  L 1170.86 160.53
  A 0.51 0.51 0.0 0 1 1170.35 161.04
  L 1135.35 161.04
  A 0.64 0.63 -0.0 0 1 1134.71 160.41
  L 1134.71 11.85
  A 0.51 0.51 0.0 0 1 1135.22 11.34
  Q 1192.28 11.33 1196.51 11.28
  C 1232.04 10.93 1255.59 34.05 1250.51 70.34
  C 1248.41 85.33 1239.66 97.25 1225.79 103.77
  A 0.58 0.58 0.0 0 0 1225.53 104.57
  L 1255.90 160.31
  Z
  M 1170.89 40.94
  L 1170.89 80.96
  A 0.31 0.31 0.0 0 0 1171.20 81.27
  L 1192.94 81.27
  A 20.69 18.39 0.0 0 0 1213.63 62.88
  L 1213.63 59.02
  A 20.69 18.39 -0.0 0 0 1192.94 40.63
  L 1171.20 40.63
  A 0.31 0.31 0.0 0 0 1170.89 40.94
  Z"
/>
<path fill="#0090d3" d="
  M 1333.51 161.03
  Q 1318.25 161.03 1316.07 160.97
  A 0.42 0.41 -89.4 0 1 1315.67 160.55
  L 1315.63 41.27
  A 0.56 0.56 0.0 0 0 1315.07 40.71
  L 1270.72 40.73
  A 0.52 0.52 0.0 0 1 1270.20 40.21
  L 1270.19 11.82
  A 0.42 0.41 -0.6 0 1 1270.59 11.41
  Q 1274.81 11.34 1333.48 11.33
  Q 1392.16 11.32 1396.37 11.39
  A 0.42 0.41 0.6 0 1 1396.78 11.79
  L 1396.78 40.18
  A 0.52 0.52 0.0 0 1 1396.26 40.70
  L 1351.90 40.71
  A 0.56 0.56 0.0 0 0 1351.34 41.27
  L 1351.35 160.55
  A 0.42 0.41 89.3 0 1 1350.94 160.97
  Q 1348.77 161.02 1333.51 161.03
  Z"
/>
<path fill="#0090d3" d="
  M 1494.78 77.22
  Q 1501.37 87.02 1508.83 97.55
  A 0.53 0.53 0.0 0 0 1509.64 97.61
  Q 1509.87 97.37 1509.87 97.04
  Q 1509.92 93.32 1509.89 11.82
  A 0.52 0.52 0.0 0 1 1510.41 11.30
  L 1545.49 11.30
  A 0.56 0.56 0.0 0 1 1546.05 11.86
  L 1546.05 160.50
  A 0.53 0.53 0.0 0 1 1545.52 161.03
  L 1515.67 161.03
  A 1.11 1.10 -17.3 0 1 1514.76 160.55
  C 1499.64 138.59 1484.46 116.82 1469.85 95.10
  Q 1463.26 85.30 1455.80 74.77
  A 0.53 0.53 0.0 0 0 1454.99 74.71
  Q 1454.76 74.95 1454.76 75.28
  Q 1454.71 79.00 1454.74 160.50
  A 0.52 0.52 0.0 0 1 1454.22 161.02
  L 1419.14 161.02
  A 0.56 0.56 0.0 0 1 1418.58 160.46
  L 1418.58 11.82
  A 0.53 0.53 0.0 0 1 1419.11 11.29
  L 1448.96 11.29
  A 1.11 1.10 -17.3 0 1 1449.87 11.77
  C 1464.99 33.73 1480.17 55.50 1494.78 77.22
  Z"
/>
<path fill="#0090d3" d="
  M 1572.88 86.18
  Q 1572.86 13.26 1572.86 11.90
  A 0.58 0.58 0.0 0 1 1573.44 11.32
  L 1676.88 11.29
  A 0.43 0.43 0.0 0 1 1677.31 11.72
  L 1677.32 40.18
  A 0.49 0.48 -0.0 0 1 1676.83 40.66
  L 1609.53 40.69
  A 0.50 0.50 0.0 0 0 1609.03 41.19
  L 1609.04 70.74
  A 0.69 0.68 -0.0 0 0 1609.73 71.42
  L 1671.43 71.39
  A 0.48 0.48 0.0 0 1 1671.91 71.87
  Q 1671.93 74.39 1671.94 86.16
  Q 1671.94 97.92 1671.91 100.44
  A 0.48 0.48 0.0 0 1 1671.44 100.92
  L 1609.74 100.92
  A 0.69 0.68 -0.0 0 0 1609.05 101.60
  L 1609.05 131.15
  A 0.50 0.50 0.0 0 0 1609.55 131.65
  L 1676.85 131.64
  A 0.49 0.48 -0.0 0 1 1677.34 132.12
  L 1677.34 160.59
  A 0.43 0.43 0.0 0 1 1676.91 161.02
  L 1573.47 161.03
  A 0.58 0.58 0.0 0 1 1572.90 160.45
  Q 1572.89 159.10 1572.88 86.18
  Z"
/>
<path fill="#0090d3" d="
  M 1825.19 160.29
  A 0.49 0.49 0.0 0 1 1824.76 161.02
  L 1786.82 161.02
  A 0.77 0.76 75.4 0 1 1786.15 160.62
  L 1758.66 110.14
  A 0.69 0.67 -13.8 0 0 1758.06 109.79
  L 1740.77 109.79
  A 0.59 0.58 0.0 0 0 1740.18 110.37
  L 1740.17 160.50
  A 0.51 0.51 0.0 0 1 1739.66 161.01
  L 1704.67 161.00
  A 0.64 0.63 0.0 0 1 1704.03 160.37
  L 1704.06 11.85
  A 0.51 0.51 0.0 0 1 1704.57 11.34
  Q 1761.61 11.34 1765.84 11.29
  C 1801.36 10.95 1824.90 34.07 1819.81 70.35
  C 1817.71 85.33 1808.96 97.25 1795.10 103.76
  A 0.58 0.58 0.0 0 0 1794.84 104.56
  L 1825.19 160.29
  Z
  M 1740.21 40.90
  L 1740.15 80.94
  A 0.29 0.29 0.0 0 0 1740.43 81.23
  L 1762.25 81.27
  A 20.63 18.28 0.1 0 0 1782.92 63.03
  L 1782.92 58.97
  A 20.63 18.28 0.1 0 0 1762.33 40.65
  L 1740.51 40.61
  A 0.29 0.29 0.0 0 0 1740.21 40.90
  Z"
/>
<path fill="#0090d3" d="
  M 430.19 270.10
  A 0.82 0.81 -3.6 0 1 431.00 270.81
  C 432.53 282.71 444.29 285.84 454.54 284.76
  C 461.57 284.03 469.01 280.08 469.73 272.48
  C 470.45 264.96 463.22 261.05 457.16 259.46
  Q 442.35 255.58 437.74 254.18
  C 429.84 251.78 420.53 246.34 417.86 238.22
  C 412.38 221.53 423.29 207.48 439.01 203.42
  Q 454.22 199.49 467.66 204.71
  C 478.09 208.76 485.49 217.52 485.68 228.83
  A 0.46 0.45 -0.6 0 1 485.22 229.29
  L 469.80 229.29
  A 0.66 0.66 0.0 0 1 469.15 228.75
  C 466.78 216.00 451.46 214.30 441.64 218.21
  C 432.72 221.76 430.90 233.13 439.82 238.10
  Q 443.72 240.28 447.27 241.14
  C 463.11 244.97 486.35 249.11 487.01 270.34
  C 487.55 287.32 475.04 297.16 459.08 299.18
  C 437.98 301.85 415.21 294.86 414.01 270.57
  A 0.46 0.45 -1.2 0 1 414.47 270.10
  L 430.19 270.10
  Z"
/>
<path fill="#0090d3" d="
  M 575.04 201.81
  C 588.91 201.79 600.81 207.22 609.06 218.00
  C 616.23 227.37 618.84 238.98 618.86 250.60
  C 618.87 262.22 616.30 273.85 609.15 283.23
  C 600.93 294.04 589.05 299.50 575.18 299.52
  C 561.30 299.54 549.41 294.11 541.16 283.33
  C 533.98 273.97 531.37 262.35 531.36 250.73
  C 531.34 239.11 533.92 227.48 541.06 218.10
  C 549.29 207.30 561.16 201.83 575.04 201.81
  Z
  M 548.73 250.70
  C 548.74 267.25 555.87 284.09 575.12 284.08
  C 594.38 284.06 601.47 267.20 601.46 250.66
  C 601.44 234.11 594.32 217.27 575.06 217.29
  C 555.81 217.30 548.72 234.16 548.73 250.70
  Z"
/>
<path fill="#0090d3" d="
  M 1169.51 250.62
  C 1169.52 262.24 1166.94 273.86 1159.79 283.24
  C 1151.57 294.04 1139.69 299.51 1125.82 299.52
  C 1111.94 299.54 1100.05 294.10 1091.80 283.32
  C 1084.63 273.96 1082.02 262.34 1082.01 250.72
  C 1082.00 239.10 1084.58 227.47 1091.72 218.09
  C 1099.95 207.29 1111.83 201.83 1125.70 201.81
  C 1139.58 201.80 1151.47 207.23 1159.72 218.01
  C 1166.89 227.38 1169.49 239.00 1169.51 250.62
  Z
  M 1099.39 250.72
  C 1099.41 267.27 1106.54 284.11 1125.79 284.09
  C 1145.05 284.07 1152.14 267.21 1152.12 250.66
  C 1152.10 234.12 1144.97 217.28 1125.72 217.30
  C 1106.47 217.32 1099.38 234.18 1099.39 250.72
  Z"
/>
<path fill="#0090d3" d="
  M 1359.12 270.81
  C 1360.65 282.71 1372.41 285.84 1382.66 284.76
  C 1389.69 284.03 1397.13 280.08 1397.85 272.48
  C 1398.57 264.96 1391.34 261.05 1385.28 259.46
  Q 1370.47 255.58 1365.86 254.18
  C 1357.96 251.78 1348.65 246.34 1345.98 238.21
  C 1340.50 221.52 1351.41 207.47 1367.13 203.41
  Q 1382.35 199.48 1395.79 204.71
  C 1406.22 208.76 1413.62 217.52 1413.81 228.83
  A 0.46 0.45 -0.6 0 1 1413.35 229.29
  L 1397.92 229.29
  A 0.66 0.66 0.0 0 1 1397.27 228.75
  C 1394.91 216.00 1379.58 214.30 1369.76 218.21
  C 1360.84 221.75 1359.02 233.13 1367.94 238.10
  Q 1371.84 240.28 1375.39 241.14
  C 1391.23 244.97 1414.47 249.11 1415.13 270.34
  C 1415.67 287.32 1403.16 297.16 1387.20 299.18
  C 1366.10 301.85 1343.33 294.86 1342.13 270.57
  A 0.46 0.45 -1.2 0 1 1342.59 270.10
  L 1358.31 270.10
  A 0.82 0.81 -3.6 0 1 1359.12 270.81
  Z"
/>
<path fill="#0090d3" d="
  M 667.03 203.11
  L 683.32 203.11
  A 0.48 0.48 0.0 0 1 683.80 203.59
  L 683.80 283.34
  A 0.48 0.48 0.0 0 0 684.28 283.82
  L 725.17 283.82
  A 0.48 0.48 0.0 0 1 725.65 284.30
  L 725.65 297.74
  A 0.48 0.48 0.0 0 1 725.17 298.22
  L 667.03 298.22
  A 0.48 0.48 0.0 0 1 666.55 297.74
  L 666.55 203.59
  A 0.48 0.48 0.0 0 1 667.03 203.11
  Z"
/>
<path fill="#0090d3" d="
  M 810.62 284.34
  C 823.69 284.35 831.89 276.19 831.96 263.14
  Q 832.18 224.44 831.95 203.85
  A 0.72 0.72 0.0 0 1 832.67 203.12
  L 848.64 203.12
  A 0.63 0.63 0.0 0 1 849.27 203.76
  Q 849.24 230.37 849.27 255.78
  Q 849.28 268.34 848.93 270.67
  C 845.96 290.37 829.14 299.70 810.61 299.69
  C 792.09 299.68 775.27 290.33 772.32 270.63
  Q 771.98 268.30 772.00 255.74
  Q 772.06 230.33 772.06 203.72
  A 0.63 0.63 0.0 0 1 772.69 203.08
  L 788.66 203.10
  A 0.72 0.72 0.0 0 1 789.38 203.83
  Q 789.13 224.42 789.30 263.12
  C 789.36 276.16 797.55 284.33 810.62 284.34
  Z"
/>
<path fill="#0090d3" d="
  M 933.17 203.10
  Q 968.01 203.10 970.59 203.17
  A 0.53 0.53 0.0 0 1 971.11 203.70
  L 971.11 216.90
  A 0.65 0.65 0.0 0 1 970.46 217.55
  L 942.25 217.55
  A 0.57 0.57 0.0 0 0 941.68 218.12
  L 941.68 297.80
  A 0.39 0.39 0.0 0 1 941.31 298.19
  Q 940.69 298.22 933.17 298.22
  Q 925.65 298.22 925.02 298.19
  A 0.39 0.39 0.0 0 1 924.65 297.80
  L 924.66 218.12
  A 0.57 0.57 0.0 0 0 924.09 217.55
  L 895.88 217.55
  A 0.65 0.65 0.0 0 1 895.23 216.90
  L 895.23 203.70
  A 0.53 0.53 0.0 0 1 895.75 203.16
  Q 898.33 203.10 933.17 203.10
  Z"
/>
<path fill="#0090d3" d="
  M 1034.44 297.71
  A 0.50 0.50 0.0 0 1 1033.94 298.21
  L 1017.68 298.21
  A 0.50 0.50 0.0 0 1 1017.18 297.71
  L 1017.18 203.61
  A 0.50 0.50 0.0 0 1 1017.68 203.11
  L 1033.94 203.11
  A 0.50 0.50 0.0 0 1 1034.44 203.61
  L 1034.44 297.71
  Z"
/>
<path fill="#0090d3" d="
  M 1262.57 246.45
  C 1268.83 255.22 1277.09 268.01 1277.78 267.97
  A 0.48 0.47 -1.4 0 0 1278.23 267.50
  L 1278.21 203.57
  A 0.46 0.46 0.0 0 1 1278.67 203.11
  L 1295.12 203.11
  A 0.31 0.31 0.0 0 1 1295.43 203.42
  L 1295.43 297.71
  A 0.50 0.50 0.0 0 1 1294.93 298.21
  L 1280.76 298.21
  A 1.61 1.61 0.0 0 1 1279.43 297.51
  Q 1257.40 265.15 1250.05 254.87
  C 1243.80 246.11 1235.54 233.32 1234.85 233.35
  A 0.48 0.47 -1.4 0 0 1234.40 233.82
  L 1234.42 297.75
  A 0.46 0.46 0.0 0 1 1233.96 298.21
  L 1217.51 298.21
  A 0.31 0.31 0.0 0 1 1217.20 297.90
  L 1217.20 203.61
  A 0.50 0.50 0.0 0 1 1217.70 203.11
  L 1231.87 203.11
  A 1.61 1.61 0.0 0 1 1233.20 203.82
  Q 1255.23 236.17 1262.57 246.45
  Z"
/>
<path fill="#0889d3" d="
  M 612.09 436.97
  L 612.13 435.50
  Q 612.11 434.78 612.35 434.27
  A 0.77 0.76 -51.0 0 1 613.64 434.13
  Q 614.62 435.38 614.26 436.64
  A 0.61 0.61 0.0 0 0 614.56 437.34
  Q 618.84 439.60 620.65 435.12
  A 0.35 0.34 43.1 0 1 621.28 435.10
  Q 622.69 437.98 621.65 440.59
  A 0.39 0.39 0.0 0 0 622.20 441.08
  L 624.08 440.06
  A 0.62 0.61 82.2 0 1 624.97 440.74
  L 624.33 443.61
  A 1.30 1.30 0.0 0 0 626.45 444.87
  Q 629.20 442.48 633.07 443.01
  L 633.04 444.24
  Q 630.88 444.39 629.31 445.23
  A 1.07 1.06 -23.0 0 0 628.80 446.48
  L 628.82 446.53
  A 0.80 0.77 68.9 0 0 629.89 447.03
  L 632.27 445.92
  Q 632.62 446.00 632.88 446.21
  Q 632.81 446.61 632.89 446.93
  Q 633.01 447.35 633.39 447.27
  Q 633.91 447.17 633.92 446.20
  Q 634.40 445.19 634.22 444.48
  Q 634.84 443.91 634.71 443.57
  A 1.41 1.32 -9.2 0 1 636.09 441.79
  Q 638.90 441.84 640.47 440.25
  A 0.70 0.70 0.0 0 1 641.64 440.54
  L 641.70 440.81
  A 1.64 1.64 0.0 0 1 641.13 442.44
  L 636.53 446.19
  A 0.37 0.36 -43.5 0 0 636.51 446.74
  Q 637.13 447.33 637.07 449.01
  A 0.97 0.97 0.0 0 0 638.27 449.99
  L 640.92 449.34
  A 0.65 0.65 0.0 0 1 641.70 450.13
  Q 641.53 450.78 640.73 451.22
  Q 639.08 452.13 636.40 452.96
  A 0.33 0.33 0.0 0 0 636.42 453.59
  L 639.00 454.16
  A 1.83 1.81 78.0 0 1 640.05 454.85
  Q 640.96 456.11 642.17 456.76
  A 1.33 1.32 10.3 0 1 642.86 457.75
  Q 643.07 459.24 644.20 460.27
  A 1.02 1.02 0.0 0 1 644.51 461.20
  Q 644.00 463.94 642.42 464.55
  Q 640.95 465.11 641.16 465.87
  Q 641.51 467.17 642.12 467.89
  A 0.64 0.64 0.0 0 0 643.15 467.81
  Q 643.99 466.42 645.91 466.08
  A 0.78 0.78 0.0 0 1 646.79 466.61
  L 648.44 471.48
  A 0.61 0.61 0.0 0 1 647.56 472.20
  L 645.44 470.97
  A 1.28 1.27 29.7 0 0 643.70 471.44
  L 643.21 472.28
  A 0.93 0.92 21.3 0 0 643.81 473.64
  L 647.99 474.57
  A 1.10 1.09 1.6 0 1 648.84 475.46
  L 649.59 479.87
  A 1.90 1.85 54.1 0 1 649.43 480.97
  Q 647.94 484.01 651.36 485.50
  A 0.44 0.44 0.0 0 1 651.19 486.35
  L 648.57 486.35
  A 0.45 0.45 0.0 0 0 648.12 486.80
  L 648.12 488.57
  A 1.30 1.28 -22.9 0 1 647.74 489.48
  C 643.74 493.54 640.14 498.67 636.01 502.45
  Q 628.34 509.46 619.70 517.95
  C 617.52 520.09 614.41 523.26 614.47 526.52
  Q 614.70 539.35 625.76 545.80
  Q 636.72 552.19 641.66 554.40
  C 651.80 558.93 659.38 562.57 667.69 569.06
  Q 674.15 574.12 676.12 582.64
  Q 678.16 591.50 678.44 596.76
  Q 678.85 604.39 678.88 604.99
  Q 679.56 620.48 680.81 636.70
  C 681.59 646.63 681.59 656.40 681.86 663.96
  Q 682.15 672.15 684.02 686.25
  Q 684.50 689.84 682.03 695.31
  C 674.21 712.66 668.39 726.45 659.11 740.37
  Q 652.50 750.29 646.36 759.60
  C 645.02 761.64 642.80 763.68 642.29 766.29
  Q 641.73 769.12 642.60 774.00
  C 643.85 781.07 645.18 789.12 643.22 796.47
  Q 642.29 799.94 642.45 802.75
  Q 642.91 810.41 642.45 818.79
  Q 642.19 823.59 639.83 834.57
  C 636.31 850.91 634.00 861.61 629.86 876.90
  C 624.80 895.58 622.92 904.08 617.80 925.80
  Q 617.45 927.28 616.49 935.25
  Q 614.81 949.13 609.17 967.19
  C 607.20 973.49 606.18 980.60 606.27 988.03
  Q 606.34 993.95 606.34 1012.16
  C 606.35 1020.17 605.14 1026.00 601.46 1032.74
  C 598.90 1037.44 595.41 1041.59 593.42 1046.66
  C 590.50 1054.07 588.48 1061.88 586.20 1069.42
  Q 583.70 1077.68 577.81 1084.53
  A 2.15 2.14 43.2 0 0 577.91 1087.43
  C 583.75 1093.43 586.79 1101.13 591.64 1107.84
  C 595.44 1113.10 598.45 1117.18 600.63 1121.41
  C 603.40 1126.80 603.24 1131.66 596.66 1133.75
  A 4.54 4.37 -54.2 0 1 595.56 1133.95
  C 587.78 1134.37 577.79 1135.61 569.63 1133.34
  C 564.04 1131.78 562.38 1127.71 561.09 1122.62
  A 1.51 1.50 -89.7 0 0 560.04 1121.55
  C 554.27 1119.98 547.99 1118.18 543.00 1114.91
  A 3.16 3.14 15.8 0 1 541.57 1112.37
  Q 541.39 1105.88 541.76 1102.00
  Q 542.70 1092.27 544.11 1071.56
  Q 544.25 1069.63 544.05 1065.03
  C 543.81 1059.16 547.03 1055.96 551.99 1051.01
  Q 553.22 1049.78 555.30 1045.96
  A 1.63 1.59 -40.2 0 0 555.42 1044.70
  Q 551.61 1032.50 551.59 1025.51
  Q 551.58 1018.36 555.34 1006.68
  A 17.62 17.55 56.2 0 0 556.11 1002.75
  C 556.85 993.29 560.88 985.30 564.72 976.70
  C 565.94 973.97 565.25 967.22 564.88 963.59
  Q 564.69 961.79 565.00 957.42
  Q 566.20 939.96 566.91 931.67
  C 567.69 922.50 567.77 914.56 567.07 905.53
  C 566.21 894.54 565.42 887.52 566.66 878.24
  C 567.74 870.09 570.49 860.78 569.03 851.09
  Q 568.47 847.42 568.13 842.80
  A 0.35 0.34 -38.0 0 0 567.46 842.72
  Q 561.47 860.08 553.09 884.30
  Q 542.90 913.76 532.27 950.22
  C 530.03 957.91 527.16 965.05 526.41 972.87
  C 525.98 977.25 525.29 984.04 523.78 989.64
  Q 518.84 1007.99 516.62 1021.08
  C 515.18 1029.57 514.32 1034.32 511.66 1041.30
  Q 509.43 1047.17 507.41 1054.61
  C 506.26 1058.86 503.93 1064.27 503.08 1068.56
  C 501.21 1078.06 499.98 1085.82 497.27 1093.38
  Q 496.71 1094.95 494.28 1098.33
  Q 492.63 1100.64 491.48 1103.99
  Q 488.12 1113.85 481.52 1129.01
  Q 479.46 1133.73 474.61 1133.14
  C 465.42 1132.02 449.97 1126.67 445.90 1117.60
  C 444.66 1114.83 446.36 1113.09 446.86 1111.02
  A 1.33 1.33 0.0 0 0 446.66 1109.95
  C 444.58 1106.98 437.70 1105.63 435.14 1104.66
  A 0.83 0.83 0.0 0 1 434.60 1103.88
  L 434.60 1072.03
  A 0.43 0.43 0.0 0 1 435.15 1071.62
  Q 439.26 1072.83 443.35 1070.79
  Q 450.06 1067.43 455.93 1063.96
  A 2.57 2.56 77.5 0 0 457.16 1062.02
  Q 457.71 1056.50 460.84 1051.60
  Q 466.00 1043.52 468.91 1038.84
  A 1.50 1.49 -37.7 0 0 469.07 1037.61
  Q 466.59 1029.57 467.27 1020.51
  C 469.31 993.35 475.30 964.48 481.43 936.69
  Q 487.39 909.68 489.27 899.46
  C 490.15 894.67 490.91 889.22 490.82 884.62
  Q 490.61 872.67 490.83 870.72
  Q 494.20 841.31 496.95 828.92
  Q 499.49 817.52 500.95 809.66
  C 501.88 804.65 503.57 800.36 504.39 796.11
  A 12.14 11.58 -40.7 0 0 504.60 794.00
  Q 504.70 788.66 505.57 783.03
  C 506.60 776.43 509.05 772.88 513.15 765.69
  Q 514.63 763.09 514.73 757.50
  C 514.86 750.61 512.91 742.12 508.25 736.69
  C 503.94 731.69 501.83 728.23 501.97 721.32
  Q 502.09 715.91 501.87 714.53
  Q 497.77 688.14 492.40 664.45
  A 8.30 8.27 -46.7 0 1 492.31 661.25
  Q 493.14 656.26 495.21 644.98
  C 496.07 640.32 495.65 635.64 494.92 629.10
  Q 493.93 620.23 494.38 614.99
  Q 495.34 603.82 498.38 579.46
  C 499.45 570.94 503.16 563.84 511.87 560.86
  Q 517.15 559.04 544.64 548.24
  Q 553.23 544.86 556.29 542.98
  C 561.22 539.95 567.19 534.02 567.38 527.85
  Q 567.72 516.71 566.60 508.19
  Q 566.01 503.69 561.47 503.41
  A 1.39 1.39 0.0 0 1 560.17 502.18
  C 559.37 494.93 558.59 487.17 553.49 481.96
  A 0.49 0.49 0.0 0 1 553.61 481.19
  Q 556.38 479.71 553.28 476.34
  A 0.60 0.60 0.0 0 1 553.43 475.40
  L 554.92 474.60
  A 1.10 1.10 0.0 0 0 555.32 473.05
  L 552.81 469.09
  A 0.52 0.52 0.0 0 1 553.21 468.29
  Q 553.30 468.28 553.48 468.28
  A 1.21 1.20 -70.9 0 0 554.46 467.80
  L 556.35 465.29
  A 0.66 0.64 -41.7 0 0 556.40 464.59
  L 553.23 458.76
  A 0.60 0.60 0.0 0 1 554.19 458.05
  L 556.52 460.39
  A 0.82 0.82 0.0 0 0 557.87 459.52
  Q 557.19 457.68 555.29 454.76
  Q 555.14 454.54 555.09 453.99
  Q 555.05 453.56 555.25 453.30
  A 0.63 0.58 -23.1 0 1 556.36 453.69
  Q 556.06 455.30 557.16 456.29
  A 0.64 0.64 0.0 0 0 558.09 456.22
  Q 558.79 455.36 560.15 454.76
  A 0.78 0.76 -23.5 0 0 560.55 453.77
  L 559.19 450.44
  A 2.58 2.56 -1.0 0 0 557.66 448.97
  Q 557.64 448.96 556.28 448.19
  A 0.75 0.73 -34.3 0 1 556.55 446.82
  Q 557.39 446.69 557.80 448.00
  Q 557.92 448.38 558.44 448.67
  Q 558.58 448.75 559.36 448.50
  A 0.36 0.35 64.8 0 0 559.55 447.97
  Q 557.84 445.31 558.94 443.62
  A 0.44 0.44 0.0 0 1 559.70 443.65
  L 560.68 445.44
  A 1.96 1.96 0.0 0 0 564.31 444.93
  L 564.84 442.58
  A 1.20 1.19 16.1 0 1 566.41 441.72
  Q 568.77 442.56 569.79 445.03
  A 0.45 0.44 -34.6 0 0 570.53 445.16
  Q 572.24 443.30 572.79 441.85
  A 0.47 0.47 0.0 0 1 573.59 441.72
  L 575.40 443.94
  A 0.55 0.55 0.0 0 0 576.30 443.86
  L 580.07 437.34
  A 0.51 0.50 49.1 0 1 580.98 437.41
  L 582.07 440.21
  L 582.08 440.93
  Q 581.99 442.37 582.73 442.83
  A 0.48 0.48 0.0 0 0 583.45 442.51
  Q 583.67 441.32 584.58 441.38
  C 586.48 441.50 587.58 438.99 588.00 437.70
  A 1.05 1.00 -45.3 0 1 589.96 437.64
  Q 590.04 437.89 590.13 437.89
  A 0.67 0.67 0.0 0 0 590.74 437.37
  Q 590.92 436.63 591.44 436.53
  Q 591.97 436.66 592.48 436.47
  Q 592.90 436.69 593.32 436.42
  Q 593.65 436.21 593.85 435.72
  Q 594.63 433.82 596.26 432.51
  A 0.49 0.49 0.0 0 1 596.98 433.14
  Q 595.61 435.39 595.52 437.68
  A 0.68 0.67 -29.0 0 0 596.78 438.04
  L 598.76 434.61
  A 0.37 0.37 0.0 0 1 599.45 434.87
  L 598.97 437.02
  A 1.04 1.03 -83.7 0 0 599.98 438.28
  L 601.67 438.28
  A 0.60 0.60 0.0 0 1 602.27 438.81
  Q 602.37 439.65 602.55 439.79
  A 0.51 0.50 -65.0 0 0 603.34 439.50
  Q 603.84 437.42 605.94 434.86
  A 1.95 1.86 -78.1 0 1 606.86 434.23
  Q 608.69 433.65 609.20 433.20
  A 0.24 0.24 0.0 0 1 609.58 433.29
  Q 609.70 433.56 609.49 433.85
  Q 609.36 434.03 609.19 434.04
  Q 606.30 434.26 606.95 437.53
  A 0.44 0.44 0.0 0 0 607.69 437.75
  L 609.18 436.26
  A 0.60 0.60 0.0 0 1 609.95 436.19
  Q 610.62 436.66 611.16 437.05
  Q 611.91 437.58 612.09 436.97
  Z
  M 639.2936 460.4988
  A 0.61 0.42 -153.6 0 0 639.6533 461.1462
  A 0.61 0.42 -153.6 0 0 640.3864 461.0412
  A 0.61 0.42 -153.6 0 0 640.0267 460.3938
  A 0.61 0.42 -153.6 0 0 639.2936 460.4988
  Z
  M 639.83 710.37
  L 639.85 710.37
  A 0.61 0.61 0.0 0 0 640.40 709.82
  C 640.96 703.12 643.89 697.16 646.90 690.85
  A 2.39 2.38 52.3 0 0 647.08 689.41
  Q 645.33 680.60 643.60 671.10
  A 0.50 0.50 0.0 0 0 642.90 670.74
  Q 642.54 670.91 642.51 671.31
  Q 642.13 676.22 639.90 687.84
  C 638.43 695.52 639.07 703.01 639.25 709.86
  A 0.53 0.53 0.0 0 0 639.83 710.37
  Z"
/>
<path fill="#0889d3" d="
  M 1094.28 1048.45
  A 0.21 0.20 -54.5 0 0 1093.95 1048.51
  Q 1092.06 1052.46 1088.71 1056.11
  Q 1083.58 1061.70 1079.52 1068.84
  A 0.95 0.95 0.0 0 0 1079.61 1069.92
  L 1081.04 1071.68
  A 2.18 2.16 22.4 0 1 1081.52 1072.82
  C 1082.05 1077.55 1080.70 1081.67 1079.37 1086.51
  C 1077.42 1093.56 1077.75 1098.78 1081.32 1104.96
  Q 1082.50 1107.00 1088.79 1116.48
  C 1093.25 1123.19 1090.41 1132.95 1082.40 1135.24
  Q 1071.28 1138.43 1060.34 1135.87
  C 1057.68 1135.25 1055.43 1134.21 1053.43 1132.12
  Q 1050.17 1128.72 1044.17 1123.77
  C 1041.62 1121.66 1040.87 1119.52 1041.39 1116.37
  Q 1042.17 1111.55 1042.52 1108.45
  A 10.82 10.60 44.4 0 0 1042.46 1105.61
  C 1041.72 1100.75 1040.71 1096.23 1040.66 1091.10
  C 1040.62 1086.82 1040.78 1079.97 1040.12 1074.31
  Q 1038.70 1062.23 1034.76 1049.23
  C 1031.82 1039.53 1041.11 1039.96 1042.96 1031.77
  A 2.59 2.52 46.8 0 0 1042.98 1030.72
  Q 1041.62 1022.87 1041.92 1012.46
  A 3.60 3.60 0.0 0 1 1042.40 1010.78
  L 1044.56 1007.03
  A 3.04 3.03 37.6 0 0 1044.08 1003.37
  Q 1041.11 1000.38 1040.17 999.56
  Q 1016.66 979.03 993.01 957.23
  C 990.02 954.48 983.89 952.05 981.02 948.67
  Q 975.93 942.68 974.32 935.92
  C 973.24 931.40 974.62 925.99 974.56 921.12
  C 974.22 891.89 977.22 860.67 981.02 831.36
  C 982.01 823.70 983.20 819.58 985.74 812.22
  Q 987.96 805.78 989.08 798.33
  Q 990.27 790.38 991.96 776.56
  A 2.18 2.18 0.0 0 0 991.36 774.77
  C 988.73 772.07 985.68 769.86 985.15 764.46
  Q 984.35 756.37 988.91 749.34
  A 1.52 1.51 -47.2 0 0 988.85 747.61
  C 978.88 734.35 969.38 720.13 961.94 705.55
  C 960.55 702.82 959.94 698.94 959.95 695.39
  Q 959.95 694.43 959.97 657.25
  C 959.97 647.01 963.11 637.34 966.62 624.38
  Q 968.14 618.79 969.41 604.24
  Q 970.30 594.00 974.53 580.27
  Q 979.15 565.21 992.79 557.07
  C 998.93 553.40 1004.94 549.90 1011.47 547.75
  C 1016.50 546.09 1023.13 543.86 1028.74 541.14
  C 1035.53 537.83 1046.26 535.61 1046.33 525.71
  Q 1046.39 517.36 1043.71 509.36
  A 2.07 2.05 8.1 0 0 1042.92 508.32
  Q 1039.70 506.12 1038.65 504.08
  C 1035.74 498.41 1033.54 490.73 1036.87 485.04
  A 2.73 2.52 -25.6 0 0 1037.18 484.26
  C 1037.48 483.00 1036.77 481.25 1036.53 479.90
  Q 1036.49 479.67 1035.37 468.98
  Q 1035.03 465.80 1037.38 457.13
  C 1040.93 444.01 1052.82 438.31 1064.99 435.78
  Q 1074.37 433.82 1082.82 436.81
  C 1094.38 440.90 1100.28 450.00 1103.63 461.75
  C 1105.19 467.22 1104.42 473.85 1104.93 479.13
  A 2.83 2.81 21.4 0 0 1105.64 480.74
  Q 1108.49 483.88 1108.06 488.26
  C 1107.55 493.62 1106.48 503.28 1101.27 505.12
  Q 1100.78 505.29 1100.33 505.56
  A 1.21 1.21 0.0 0 0 1099.75 506.41
  Q 1097.66 519.02 1097.61 519.52
  Q 1096.88 525.70 1099.08 530.92
  C 1102.15 538.18 1115.88 542.90 1123.20 545.03
  C 1133.27 547.97 1141.93 550.73 1150.30 555.69
  C 1159.53 561.16 1162.54 569.43 1165.45 579.56
  Q 1168.16 589.02 1170.51 602.01
  Q 1176.21 633.47 1177.61 666.79
  C 1177.90 673.80 1178.70 679.02 1179.74 686.49
  Q 1179.85 687.33 1179.71 691.96
  C 1179.55 697.03 1176.64 702.01 1173.87 707.62
  Q 1165.91 723.69 1154.89 737.43
  A 1.85 1.85 0.0 0 0 1154.56 739.12
  Q 1159.24 754.90 1162.38 773.29
  C 1163.38 779.15 1151.81 785.69 1146.67 789.13
  Q 1143.25 791.42 1142.28 796.01
  Q 1140.17 805.99 1132.46 840.80
  Q 1130.33 850.42 1129.80 853.27
  C 1126.97 868.63 1122.63 882.91 1117.02 902.33
  C 1114.37 911.50 1112.50 919.60 1110.18 930.49
  C 1109.77 932.45 1110.27 934.45 1111.36 936.53
  C 1113.33 940.31 1113.47 942.63 1111.76 946.29
  Q 1109.85 950.38 1107.83 954.06
  Q 1107.09 955.40 1107.42 960.33
  C 1107.78 965.88 1111.34 972.28 1108.68 979.92
  Q 1108.02 981.83 1106.14 988.64
  A 1.05 1.05 0.0 0 0 1107.11 989.97
  Q 1110.35 990.08 1112.30 992.99
  C 1114.26 995.91 1117.28 1003.05 1120.66 1006.37
  C 1127.03 1012.62 1134.72 1014.79 1143.66 1014.12
  C 1148.59 1013.75 1153.21 1014.51 1157.87 1016.59
  C 1166.21 1020.32 1158.79 1040.55 1155.93 1046.48
  C 1154.48 1049.47 1154.08 1050.58 1151.49 1052.11
  A 2.26 2.26 0.0 0 0 1150.49 1053.37
  C 1146.68 1065.37 1144.79 1079.90 1142.87 1091.12
  Q 1140.42 1105.46 1132.69 1116.66
  C 1129.50 1121.29 1122.78 1125.73 1117.07 1123.97
  C 1108.58 1121.36 1108.63 1113.05 1109.62 1105.77
  Q 1110.98 1095.77 1111.02 1086.75
  C 1111.04 1083.34 1109.33 1080.29 1108.47 1077.17
  C 1105.45 1066.14 1102.72 1056.61 1094.28 1048.45
  Z
  M 1003.24 701.78
  A 0.59 0.59 0.0 0 0 1003.88 701.18
  Q 1003.68 694.57 1005.58 688.17
  A 8.63 8.57 52.9 0 0 1005.94 685.51
  C 1005.86 680.91 1005.74 675.69 1006.36 670.76
  Q 1006.76 667.56 1006.36 664.62
  C 1005.80 660.51 1005.90 657.49 1005.81 652.97
  A 0.61 0.57 -68.6 0 0 1005.64 652.55
  Q 1005.48 652.39 1005.30 652.34
  Q 1004.70 652.20 1004.59 652.72
  C 1003.74 657.02 1002.70 660.55 1002.23 665.51
  Q 1001.68 671.27 999.84 677.06
  A 5.97 5.73 56.4 0 0 999.58 678.50
  Q 999.28 685.83 999.78 687.74
  Q 1001.78 695.36 1002.60 701.44
  A 0.37 0.36 87.9 0 0 1002.93 701.76
  L 1003.24 701.78
  Z
  M 1138.03 666.71
  Q 1137.41 666.92 1137.44 667.53
  Q 1137.99 678.00 1138.07 689.97
  Q 1138.08 691.48 1139.34 693.46
  A 0.28 0.28 0.0 0 0 1139.83 693.42
  L 1142.81 686.35
  A 2.21 2.19 50.0 0 0 1142.92 685.01
  L 1138.56 666.99
  A 0.41 0.40 -17.0 0 0 1138.03 666.71
  Z
  M 1063.79 836.45
  A 0.38 0.37 -35.5 0 0 1063.06 836.33
  Q 1056.99 854.54 1047.17 881.93
  Q 1044.28 889.99 1040.17 906.92
  Q 1039.61 909.24 1037.95 912.80
  Q 1036.10 916.75 1036.14 918.74
  Q 1036.24 923.24 1039.46 925.48
  Q 1049.17 932.24 1056.65 940.17
  A 0.45 0.45 0.0 0 0 1057.42 939.94
  C 1058.81 932.79 1059.94 927.21 1060.55 919.97
  Q 1063.77 881.72 1064.33 875.00
  Q 1064.86 868.63 1064.34 846.55
  Q 1064.29 844.02 1063.95 841.58
  Q 1063.75 840.06 1063.79 836.45
  Z"
/>
<path fill="#0090d3" d="
  M 612.13 435.50
  L 612.09 436.97
  L 612.13 435.50
  Z"
/>
<path fill="#0090d3" d="
  M 592.48 436.47
  Q 591.97 436.66 591.44 436.53
  Q 591.54 435.91 592.48 436.47
  Z"
/>
<path fill="#0889d3" d="
  M 806.55 1122.62
  A 0.62 0.62 0.0 0 0 805.40 1122.95
  C 805.51 1127.00 804.20 1133.48 799.25 1133.98
  Q 790.86 1134.85 782.07 1134.62
  C 776.27 1134.47 773.95 1131.60 772.06 1126.26
  Q 769.26 1118.35 772.02 1111.52
  C 776.24 1101.08 778.68 1094.98 778.96 1084.38
  A 6.70 6.55 -50.4 0 0 778.83 1082.80
  Q 777.56 1076.47 777.62 1074.92
  Q 777.67 1073.39 779.35 1067.04
  A 5.95 5.81 50.7 0 0 779.53 1065.00
  Q 779.28 1061.90 778.62 1058.87
  C 776.75 1050.29 773.59 1039.50 771.60 1030.02
  Q 767.72 1011.52 764.21 996.12
  C 760.90 981.62 759.20 969.47 759.37 956.00
  C 759.50 945.10 760.26 932.91 759.02 921.80
  Q 758.17 914.15 758.02 910.15
  Q 757.01 884.00 751.65 856.61
  Q 748.34 839.71 746.26 830.09
  Q 742.70 813.60 742.07 803.38
  Q 741.16 788.81 742.31 774.00
  Q 742.82 767.43 744.92 754.51
  Q 745.19 752.85 743.77 744.60
  A 17.77 17.16 -50.8 0 1 743.52 741.65
  C 743.53 738.67 744.14 734.43 744.11 731.18
  Q 744.05 721.54 744.59 713.50
  Q 744.82 709.99 743.59 706.13
  C 738.13 688.99 735.74 669.32 733.76 651.63
  Q 730.46 622.21 731.66 594.00
  Q 732.13 582.86 733.33 574.28
  C 734.41 566.61 738.04 558.59 744.71 554.05
  Q 746.69 552.70 753.83 550.80
  Q 767.14 547.27 780.11 542.86
  C 783.77 541.62 790.30 539.49 792.44 535.62
  Q 794.85 531.28 794.53 526.50
  Q 793.76 515.19 792.37 502.85
  Q 791.34 493.59 792.93 483.72
  Q 794.24 475.65 799.68 465.89
  Q 805.92 454.70 810.91 448.40
  C 816.10 441.85 825.64 439.29 833.65 439.57
  C 835.97 439.65 837.09 439.39 839.41 439.00
  A 5.45 5.38 42.2 0 1 840.80 438.94
  Q 849.48 439.67 855.27 444.66
  Q 858.27 447.25 864.40 457.11
  C 873.54 471.82 878.14 489.41 879.56 506.56
  Q 880.02 512.04 880.55 513.72
  C 882.70 520.43 888.73 529.87 888.66 537.56
  C 888.60 544.40 888.28 549.01 890.52 554.74
  C 895.74 568.15 900.40 578.69 900.75 591.59
  C 900.88 596.58 898.79 598.62 894.44 600.31
  A 0.84 0.83 77.5 0 0 893.90 601.16
  C 894.26 606.20 895.12 611.97 895.13 616.32
  Q 895.16 630.67 895.20 651.59
  Q 895.22 662.97 894.37 671.39
  Q 892.78 686.96 892.11 691.09
  Q 890.87 698.73 887.08 710.32
  Q 885.84 714.12 886.30 719.66
  C 886.87 726.46 886.88 730.82 887.30 739.25
  Q 887.80 749.39 886.91 760.04
  Q 885.89 772.30 885.98 776.54
  Q 886.22 786.91 885.92 800.54
  Q 885.75 808.42 882.57 824.31
  Q 882.49 824.73 876.90 848.15
  C 872.47 866.70 870.66 884.46 868.64 910.01
  Q 868.31 914.20 867.78 915.88
  C 865.89 921.84 865.09 926.36 864.53 933.76
  Q 863.84 942.78 863.80 948.76
  Q 863.75 956.26 862.64 962.20
  C 859.16 980.80 854.68 997.73 849.00 1015.69
  Q 848.63 1016.86 842.42 1038.67
  Q 838.45 1052.61 834.89 1063.41
  C 834.58 1064.37 833.89 1066.82 833.89 1068.23
  C 833.87 1073.45 832.23 1078.90 832.43 1084.28
  Q 832.81 1094.32 835.77 1102.95
  C 837.16 1107.01 841.47 1113.47 841.48 1117.84
  C 841.50 1128.30 835.55 1137.01 823.97 1135.57
  C 817.66 1134.79 810.36 1131.65 807.32 1125.73
  C 806.84 1124.79 806.98 1123.35 806.55 1122.62
  Z
  M 806.06 1072.72
  Q 810.40 1061.00 811.62 1049.30
  Q 813.07 1035.31 814.14 1014.54
  C 814.76 1002.47 814.86 997.63 815.75 986.83
  Q 817.63 964.05 818.31 954.50
  C 818.76 948.18 818.51 943.06 819.06 936.19
  Q 819.42 931.59 819.53 920.57
  A 0.75 0.75 0.0 0 0 818.84 919.81
  L 805.77 918.80
  A 1.46 1.46 0.0 0 0 804.21 920.08
  C 801.35 943.47 801.35 967.52 802.29 990.25
  Q 802.60 997.91 802.10 1003.95
  C 801.66 1009.12 802.03 1013.78 801.54 1019.06
  C 800.82 1026.84 801.06 1038.29 801.06 1043.46
  C 801.07 1053.95 802.63 1062.99 805.65 1072.71
  A 0.22 0.22 0.0 0 0 806.06 1072.72
  Z"
/>
<path fill="#0090d3" d="
  M 582.08 440.93
  L 582.07 440.21
  Q 582.49 440.43 582.41 440.74
  Q 582.37 440.93 582.08 440.93
  Z"
/>
<path fill="#0090d3" d="
  M 633.04 444.24
  L 633.07 443.01
  Q 633.27 443.53 633.04 444.24
  Z"
/>
<path fill="#0090d3" d="
  M 634.22 444.48
  Q 634.40 445.19 633.92 446.20
  Q 633.84 445.72 633.57 445.74
  A 0.13 0.12 -69.2 0 0 633.47 445.79
  Q 633.21 446.08 632.88 446.21
  Q 632.62 446.00 632.27 445.92
  L 632.69 445.75
  A 0.34 0.34 0.0 0 0 632.82 445.21
  Q 632.68 445.05 632.66 444.97
  A 0.32 0.32 0.0 0 1 633.10 444.61
  Q 634.02 444.99 634.22 444.48
  Z"
/>
<path fill="#0889d3" d="
  M 1401.38 568.86
  A 0.15 0.15 0.0 0 1 1401.46 569.13
  Q 1399.00 570.72 1398.22 571.64
  A 1.40 1.40 0.0 0 0 1399.18 573.94
  L 1400.51 574.05
  A 0.34 0.33 -72.3 0 1 1400.77 574.56
  Q 1399.03 577.43 1396.31 576.03
  A 0.75 0.75 0.0 0 0 1395.36 576.25
  Q 1394.13 577.99 1394.44 579.78
  Q 1394.67 581.10 1396.54 589.28
  A 13.00 12.79 -52.4 0 1 1396.87 592.00
  Q 1397.00 604.46 1394.19 614.23
  Q 1388.00 635.84 1383.64 656.45
  C 1382.57 661.47 1381.17 665.46 1379.67 669.92
  Q 1377.83 675.41 1378.06 682.48
  Q 1378.15 684.99 1376.16 696.72
  A 1.23 1.22 34.9 0 0 1376.31 697.53
  Q 1376.65 698.08 1377.88 699.86
  C 1380.11 703.09 1379.11 708.01 1378.61 713.62
  Q 1378.35 716.49 1375.81 720.66
  A 3.11 3.07 -27.6 0 0 1375.35 722.09
  Q 1375.24 723.98 1375.57 724.90
  C 1379.05 734.49 1380.75 743.81 1383.90 754.13
  Q 1387.01 764.34 1387.34 766.97
  Q 1388.88 779.32 1389.05 781.48
  Q 1390.19 796.53 1384.97 809.82
  C 1382.60 815.85 1377.44 823.25 1375.13 828.93
  Q 1371.27 838.44 1372.09 849.51
  Q 1372.28 852.11 1374.18 877.18
  Q 1374.75 884.72 1374.66 890.33
  C 1374.60 894.72 1374.37 901.77 1375.19 907.86
  Q 1376.19 915.30 1379.89 928.87
  C 1380.31 930.39 1380.89 932.88 1380.91 935.07
  C 1381.00 942.20 1380.53 947.99 1382.60 954.94
  Q 1386.99 969.64 1386.98 984.50
  C 1386.98 988.90 1385.95 994.26 1384.52 999.39
  Q 1381.09 1011.72 1379.41 1022.97
  Q 1377.98 1032.53 1377.04 1038.14
  C 1375.72 1046.04 1375.41 1053.96 1376.04 1061.75
  Q 1376.68 1069.83 1377.62 1071.94
  C 1380.56 1078.51 1382.73 1083.35 1383.47 1089.33
  A 7.11 7.11 0.0 0 1 1382.51 1093.86
  Q 1379.09 1099.57 1378.51 1100.51
  C 1375.46 1105.48 1374.12 1110.38 1373.36 1116.02
  Q 1372.63 1121.44 1372.57 1125.44
  A 2.95 2.94 -3.5 0 1 1370.03 1128.31
  L 1369.83 1128.34
  A 2.15 2.15 0.0 0 1 1367.38 1126.41
  Q 1367.22 1124.81 1367.14 1117.77
  C 1367.10 1114.37 1366.45 1110.81 1365.59 1107.82
  A 0.96 0.96 0.0 0 0 1364.25 1107.22
  Q 1355.40 1111.57 1349.61 1120.35
  Q 1349.03 1121.24 1346.21 1126.93
  C 1343.97 1131.45 1336.59 1132.70 1332.14 1132.68
  Q 1323.97 1132.64 1315.80 1132.70
  C 1309.35 1132.74 1301.61 1131.17 1296.74 1130.29
  Q 1293.08 1129.62 1290.28 1127.96
  A 2.39 2.26 29.4 0 1 1289.33 1124.91
  Q 1289.67 1124.26 1289.75 1123.51
  A 0.58 0.58 0.0 0 0 1289.22 1122.87
  Q 1284.88 1122.51 1275.45 1119.84
  Q 1272.58 1119.03 1271.16 1117.76
  A 1.07 1.05 -68.7 0 1 1270.80 1116.92
  Q 1270.86 1115.11 1272.12 1114.31
  C 1276.28 1111.66 1282.65 1110.60 1288.12 1109.55
  C 1295.89 1108.06 1300.74 1104.52 1305.14 1098.62
  Q 1312.24 1089.10 1318.37 1077.13
  C 1324.05 1066.01 1326.04 1057.44 1325.28 1045.98
  C 1324.69 1037.08 1324.36 1028.62 1321.94 1020.45
  Q 1315.39 998.36 1312.86 976.47
  Q 1311.87 967.93 1310.59 953.36
  A 8.64 8.51 -58.9 0 0 1309.98 950.82
  Q 1307.45 944.54 1302.19 929.36
  Q 1301.12 926.28 1297.74 926.06
  Q 1295.27 925.90 1287.27 925.97
  Q 1279.92 926.04 1280.77 918.75
  Q 1281.42 913.24 1281.46 909.94
  C 1281.60 899.10 1282.86 888.34 1284.14 877.00
  Q 1284.72 871.90 1284.15 861.26
  C 1283.73 853.49 1279.90 841.70 1279.57 833.48
  Q 1279.37 828.60 1279.34 811.62
  Q 1279.32 799.51 1280.51 789.94
  Q 1281.06 785.49 1283.40 766.59
  C 1284.20 760.10 1283.02 750.22 1283.00 743.79
  Q 1282.96 733.19 1283.18 725.74
  Q 1283.32 720.93 1283.92 718.21
  C 1285.35 711.81 1285.74 705.46 1287.35 699.29
  A 1.17 1.16 -74.8 0 0 1286.54 697.87
  C 1280.59 696.17 1277.37 691.31 1274.78 686.32
  A 2.04 2.03 77.1 0 0 1273.05 685.23
  C 1262.93 684.89 1250.97 675.42 1249.20 665.28
  C 1247.59 656.10 1250.00 644.79 1259.76 641.45
  A 1.58 1.57 -2.8 0 0 1260.79 640.32
  C 1262.10 634.84 1264.54 631.12 1268.34 626.16
  Q 1277.40 614.34 1283.18 601.96
  Q 1291.22 584.73 1293.75 578.64
  C 1296.89 571.08 1300.05 567.05 1307.07 564.55
  Q 1315.19 561.67 1321.29 560.83
  Q 1323.22 560.56 1325.13 560.21
  A 0.41 0.40 -26.4 0 0 1325.36 559.54
  C 1322.15 556.13 1321.73 553.01 1320.83 548.87
  C 1319.18 541.21 1313.12 540.13 1305.89 537.41
  C 1303.11 536.37 1301.93 533.44 1302.80 530.15
  Q 1303.72 526.64 1301.72 524.18
  A 1.79 1.79 0.0 0 1 1301.39 522.57
  Q 1301.76 521.26 1301.46 519.04
  C 1301.12 516.55 1302.80 514.36 1300.03 512.56
  Q 1300.00 512.54 1295.60 509.87
  A 2.50 2.49 -63.9 0 1 1294.57 506.85
  Q 1295.00 505.74 1296.06 504.80
  Q 1298.74 502.44 1304.06 496.74
  A 2.24 2.22 58.7 0 0 1304.57 494.60
  C 1303.74 491.77 1304.32 489.54 1305.97 487.03
  Q 1311.17 479.10 1312.61 469.80
  C 1314.20 459.53 1323.36 460.07 1331.37 457.55
  Q 1342.65 454.00 1348.99 452.96
  C 1358.21 451.46 1369.63 458.73 1376.49 464.61
  Q 1379.39 467.09 1383.15 473.22
  C 1388.75 482.38 1396.70 492.39 1399.45 504.10
  A 8.14 7.76 -54.2 0 1 1399.67 505.69
  Q 1399.82 509.03 1399.79 514.50
  C 1399.77 519.10 1400.60 522.34 1401.41 527.00
  C 1402.25 531.87 1401.56 535.88 1400.50 541.02
  A 7.92 7.56 -40.3 0 0 1400.33 542.63
  Q 1400.31 547.31 1402.54 552.64
  C 1404.16 556.50 1404.82 559.69 1403.36 563.37
  C 1402.84 564.67 1403.27 566.17 1403.03 567.23
  A 0.99 0.98 -1.0 0 1 1402.31 567.97
  Q 1401.59 568.16 1400.55 567.18
  A 0.57 0.56 43.9 0 0 1399.77 567.19
  L 1399.50 567.46
  A 0.48 0.45 -23.7 0 0 1399.36 567.79
  Q 1399.36 568.86 1401.38 568.86
  Z"
/>
<path fill="#0090d3" d="
  M 555.91 1138.39
  Q 555.54 1138.47 555.27 1138.31
  A 0.32 0.32 0.0 0 1 555.41 1137.72
  Q 555.63 1137.70 555.96 1137.83
  A 0.29 0.29 0.0 0 1 555.91 1138.39
  Z"
/>
</svg>
